<svg xmlns="http://www.w3.org/2000/svg" viewBox="0 0 741.43 725.5"><defs><style>.a{fill:none;stroke:#000;stroke-linecap:round;stroke-miterlimit:10;stroke-width:37px;}</style></defs><path class="a" d="M743.5,440.5s-68,15-91,44-33,56-8,161,60,226,185,269,301,19,356,0,126-113,139-232,21-300-29-323-88-15-105,23-10,106-10,106" transform="translate(-611.38 -231.56)"/><path class="a" d="M1190.5,382.5s-7-86-75-88-76,61-75,126" transform="translate(-611.38 -231.56)"/><path class="a" d="M1047.5,346.5s-9-104-88-96-61,112-61,170" transform="translate(-611.38 -231.56)"/><path class="a" d="M896.5,329.5s-67-76-116-25-22,229-22,229" transform="translate(-611.38 -231.56)"/></svg>